<svg width="105" height="29" viewBox="0 0 105 29" fill="none" xmlns="http://www.w3.org/2000/svg">
  <path d="M14.136 22H0.728V0.655998H13.688C15.736 0.655998 17.304 1.21067 18.392 2.32C19.48 3.42933 20.024 4.688 20.024 6.096C20.024 7.39733 19.6827 8.48533 19 9.36C18.3173 10.2133 17.4427 10.7573 16.376 10.992C17.5493 11.1627 18.52 11.7387 19.288 12.72C20.056 13.68 20.44 14.8427 20.44 16.208C20.44 17.808 19.896 19.1733 18.808 20.304C17.72 21.4347 16.1627 22 14.136 22ZM12.184 8.528C12.5253 8.528 12.824 8.41067 13.08 8.176C13.336 7.92 13.464 7.61067 13.464 7.248C13.464 6.88533 13.336 6.59733 13.08 6.384C12.824 6.14933 12.5253 6.032 12.184 6.032H7.192V8.528H12.184ZM12.376 16.624C12.8453 16.624 13.208 16.5067 13.464 16.272C13.7413 16.016 13.88 15.6853 13.88 15.28C13.88 14.896 13.7413 14.576 13.464 14.32C13.1867 14.0427 12.824 13.904 12.376 13.904H7.192V16.624H12.376ZM37.6005 22H31.8405V20.528C31.4138 21.0827 30.7632 21.5307 29.8885 21.872C29.0352 22.2133 28.1285 22.384 27.1685 22.384C25.8458 22.384 24.6298 21.9467 23.5205 21.072C22.4112 20.176 21.8565 18.9173 21.8565 17.296C21.8565 16.1013 22.1445 15.12 22.7205 14.352C23.3178 13.5627 23.9898 13.04 24.7365 12.784C25.4832 12.5067 26.2938 12.368 27.1685 12.368C29.3872 12.368 30.9445 12.9333 31.8405 14.064V12.464C31.8405 11.9093 31.5845 11.4507 31.0725 11.088C30.5818 10.7253 29.8778 10.544 28.9605 10.544C27.4245 10.544 25.9952 11.0453 24.6725 12.048L22.7205 8.496C24.6618 6.93867 27.0938 6.16 30.0165 6.16C31.0405 6.16 31.9792 6.26667 32.8325 6.48C33.6858 6.672 34.4858 7.00267 35.2325 7.472C35.9792 7.92 36.5552 8.592 36.9605 9.488C37.3872 10.3627 37.6005 11.4187 37.6005 12.656V22ZM29.5685 18.64C30.6992 18.64 31.4565 18.3627 31.8405 17.808V16.944C31.4565 16.3893 30.6992 16.112 29.5685 16.112C28.2245 16.112 27.5525 16.5387 27.5525 17.392C27.5525 18.224 28.2245 18.64 29.5685 18.64ZM57.3955 22H50.3235L47.6675 17.008L46.5475 18.512V22H40.7875V0.655998H46.5475V12.048L50.0995 6.544H57.0435L51.7315 13.584L57.3955 22ZM65.8395 22.384C63.3648 22.384 61.3062 21.648 59.6635 20.176C58.0422 18.704 57.2315 16.7307 57.2315 14.256C57.2315 11.9733 58.0208 10.0533 59.5995 8.496C61.1782 6.93867 63.1942 6.16 65.6475 6.16C67.9728 6.16 69.8928 6.94933 71.4075 8.528C72.9222 10.0853 73.6795 12.1973 73.6795 14.864V16.048H63.1835C63.3542 16.5813 63.7275 17.04 64.3035 17.424C64.8795 17.808 65.6155 18 66.5115 18C67.0022 18 67.6208 17.8933 68.3675 17.68C69.1355 17.4667 69.7008 17.2107 70.0635 16.912L72.4315 20.464C71.7062 21.0827 70.7355 21.5627 69.5195 21.904C68.3035 22.224 67.0768 22.384 65.8395 22.384ZM68.2075 12.4C67.9088 11.1627 67.0555 10.544 65.6475 10.544C64.3035 10.544 63.4608 11.1627 63.1195 12.4H68.2075ZM81.4225 22H75.6625V6.544H81.4225V8.24C81.9132 7.664 82.6065 7.16267 83.5025 6.736C84.4198 6.30933 85.3052 6.096 86.1585 6.096V11.6C85.8385 11.4933 85.4012 11.44 84.8465 11.44C83.1612 11.44 82.0198 11.8027 81.4225 12.528V22ZM87.9713 28.016L88.7713 22.896C89.1126 23.088 89.5179 23.184 89.9873 23.184C91.1393 23.184 91.8113 22.9813 92.0033 22.576L92.1313 22.256L86.0512 6.544H92.1313L95.0753 15.376L98.0513 6.544H104.131L97.4113 23.92C96.7713 25.584 95.8753 26.704 94.7233 27.28C93.5713 27.8773 92.0673 28.208 90.2113 28.272C89.2939 28.272 88.5473 28.1867 87.9713 28.016Z" fill="black"/>
</svg>
