<svg width="14" height="24" viewBox="0 0 14 24" fill="none" xmlns="http://www.w3.org/2000/svg">
<path d="M12.2929 8.29289C12.6834 7.90237 13.3166 7.90237 13.7071 8.29289C14.0976 8.68342 14.0976 9.31658 13.7071 9.70711L12.2929 8.29289ZM7 15L7.70711 15.7071L7 16.4142L6.29289 15.7071L7 15ZM0.292893 9.70711C-0.0976317 9.31658 -0.0976317 8.68342 0.292893 8.29289C0.683417 7.90237 1.31658 7.90237 1.70711 8.29289L0.292893 9.70711ZM13.7071 9.70711L7.70711 15.7071L6.29289 14.2929L12.2929 8.29289L13.7071 9.70711ZM6.29289 15.7071L0.292893 9.70711L1.70711 8.29289L7.70711 14.2929L6.29289 15.7071Z" fill="black"/>
</svg>
