<svg width="28" height="30" viewBox="0 0 28 30" fill="none" xmlns="http://www.w3.org/2000/svg">
<path d="M8 9L8 7.5C8 4.18629 10.6863 1.5 14 1.5V1.5C17.3137 1.5 20 4.18629 20 7.5L20 9" stroke="black" stroke-width="3" stroke-linecap="round"/>
<path fill-rule="evenodd" clip-rule="evenodd" d="M1.08579 8.08579C0.5 8.67157 0.5 9.61438 0.5 11.5V22C0.5 25.7712 0.5 27.6569 1.67157 28.8284C2.84315 30 4.72876 30 8.5 30H19.5C23.2712 30 25.1569 30 26.3284 28.8284C27.5 27.6569 27.5 25.7712 27.5 22V11.5C27.5 9.61438 27.5 8.67157 26.9142 8.08579C26.3284 7.5 25.3856 7.5 23.5 7.5H4.5C2.61438 7.5 1.67157 7.5 1.08579 8.08579ZM11 15C11 14.1716 10.3284 13.5 9.5 13.5C8.67157 13.5 8 14.1716 8 15V18C8 18.8284 8.67157 19.5 9.5 19.5C10.3284 19.5 11 18.8284 11 18V15ZM20 15C20 14.1716 19.3284 13.5 18.5 13.5C17.6716 13.5 17 14.1716 17 15V18C17 18.8284 17.6716 19.5 18.5 19.5C19.3284 19.5 20 18.8284 20 18V15Z" fill="black"/>
</svg>
