<svg width="28" height="28" viewBox="0 0 28 28" fill="none" xmlns="http://www.w3.org/2000/svg">
  <g clip-path="url(#clip0_23_108)">
    <path d="M14 2.52322C17.7404 2.52322 18.1795 2.5399 19.6578 2.60659C21.025 2.66773 21.7642 2.89559 22.2588 3.09011C22.9147 3.34577 23.3815 3.64589 23.8706 4.13497C24.3597 4.62406 24.6654 5.09091 24.9155 5.74672C25.1044 6.24137 25.3379 6.98055 25.399 8.34776C25.4657 9.82612 25.4824 10.2652 25.4824 14.0056C25.4824 17.7459 25.4657 18.185 25.399 19.6634C25.3379 21.0306 25.11 21.7697 24.9155 22.2644C24.6598 22.9202 24.3597 23.3871 23.8706 23.8761C23.3815 24.3652 22.9147 24.6709 22.2588 24.921C21.7642 25.11 21.025 25.3434 19.6578 25.4045C18.1795 25.4712 17.7404 25.4879 14 25.4879C10.2596 25.4879 9.82057 25.4712 8.34221 25.4045C6.975 25.3434 6.23581 25.1155 5.74117 24.921C5.08536 24.6653 4.6185 24.3652 4.12942 23.8761C3.64034 23.3871 3.33466 22.9202 3.08456 22.2644C2.8956 21.7697 2.66217 21.0306 2.60103 19.6634C2.53434 18.185 2.51767 17.7459 2.51767 14.0056C2.51767 10.2652 2.53434 9.82612 2.60103 8.34776C2.66217 6.98055 2.89004 6.24137 3.08456 5.74672C3.34022 5.09091 3.64034 4.62406 4.12942 4.13497C4.6185 3.64589 5.08536 3.34021 5.74117 3.09011C6.23581 2.90115 6.975 2.66773 8.34221 2.60659C9.82057 2.53434 10.2652 2.52322 14 2.52322ZM14 0C10.1985 0 9.72053 0.0166733 8.22549 0.0833664C6.73601 0.15006 5.71894 0.389043 4.8297 0.733624C3.90711 1.08932 3.12902 1.57285 2.35093 2.35093C1.57285 3.12902 1.09488 3.91266 0.733625 4.82969C0.389044 5.71894 0.15006 6.73601 0.0833665 8.23104C0.0166733 9.72052 0 10.1985 0 14C0 17.8015 0.0166733 18.2795 0.0833665 19.7745C0.15006 21.264 0.389044 22.2811 0.733625 23.1759C1.08932 24.0984 1.57285 24.8765 2.35093 25.6546C3.12902 26.4327 3.91267 26.9107 4.8297 27.2719C5.71894 27.6165 6.73601 27.8555 8.23105 27.9222C9.72609 27.9889 10.1985 28.0056 14.0056 28.0056C17.8126 28.0056 18.285 27.9889 19.7801 27.9222C21.2696 27.8555 22.2866 27.6165 23.1814 27.2719C24.104 26.9162 24.8821 26.4327 25.6602 25.6546C26.4383 24.8765 26.9163 24.0929 27.2775 23.1759C27.6221 22.2866 27.8611 21.2695 27.9278 19.7745C27.9945 18.2795 28.0111 17.8071 28.0111 14C28.0111 10.1929 27.9945 9.72052 27.9278 8.22549C27.8611 6.73601 27.6221 5.71894 27.2775 4.82414C26.9218 3.90155 26.4383 3.12346 25.6602 2.34538C24.8821 1.56729 24.0985 1.08932 23.1814 0.728067C22.2922 0.383486 21.2751 0.144502 19.7801 0.0778086C18.2795 0.0166733 17.8015 0 14 0Z" fill="white"/>
    <path d="M14 6.81396C10.0318 6.81396 6.80826 10.0319 6.80826 14.0057C6.80826 17.9795 10.0262 21.1974 14 21.1974C17.9738 21.1974 21.1917 17.9795 21.1917 14.0057C21.1917 10.0319 17.9738 6.81396 14 6.81396ZM14 18.6687C11.4212 18.6687 9.33148 16.5789 9.33148 14.0001C9.33148 11.4213 11.4212 9.33163 14 9.33163C16.5788 9.33163 18.6685 11.4213 18.6685 14.0001C18.6685 16.5789 16.5788 18.6687 14 18.6687Z" fill="white"/>
    <path d="M21.4752 8.20308C22.4022 8.20308 23.1536 7.45161 23.1536 6.52464C23.1536 5.59766 22.4022 4.84619 21.4752 4.84619C20.5482 4.84619 19.7968 5.59766 19.7968 6.52464C19.7968 7.45161 20.5482 8.20308 21.4752 8.20308Z" fill="white"/>
  </g>
  <defs>
    <clipPath id="clip0_23_108">
      <rect width="28" height="28" fill="white"/>
    </clipPath>
  </defs>
</svg>
