<svg width="13" height="14" viewBox="0 0 13 14" fill="none" xmlns="http://www.w3.org/2000/svg">
<path d="M1.9 12.22H0.8V10.22H1.9V9.14H0.8V7.04H1.9V0.0199988H7.44C8.97333 0.0199988 10.2 0.426666 11.12 1.24C12.0533 2.05333 12.52 3.16667 12.52 4.58C12.52 6.04667 12.06 7.17333 11.14 7.96C10.22 8.74667 8.98 9.14 7.42 9.14H4.44V10.22H6.54V12.22H4.44V14H1.9V12.22ZM7.12 7.04C7.97333 7.04 8.66 6.85333 9.18 6.48C9.71333 6.09333 9.98 5.46 9.98 4.58C9.98 2.94 9.02667 2.12 7.12 2.12H4.44V7.04H7.12Z" fill="black"/>
</svg>
