<svg width="28" height="28" viewBox="0 0 28 28" fill="none" xmlns="http://www.w3.org/2000/svg">
  <path fill-rule="evenodd" clip-rule="evenodd" d="M2.37656 13.1753C9.61163 10.0231 14.4361 7.94498 16.8501 6.94093C23.7424 4.07418 25.1746 3.57619 26.1081 3.55975C26.3134 3.55613 26.7724 3.60701 27.0698 3.84829C27.3209 4.05203 27.3899 4.32724 27.423 4.5204C27.4561 4.71357 27.4972 5.1536 27.4645 5.49742C27.091 9.42179 25.4749 18.9452 24.6527 23.3406C24.3048 25.2004 23.6198 25.824 22.9566 25.885C21.5153 26.0176 20.4209 24.9325 19.025 24.0175C16.8406 22.5856 15.6066 21.6943 13.4863 20.2971C11.036 18.6823 12.6245 17.7948 14.0209 16.3444C14.3864 15.9648 20.7365 10.1889 20.8595 9.6649C20.8748 9.59937 20.8891 9.3551 20.744 9.22612C20.5989 9.09713 20.3847 9.14124 20.2301 9.17632C20.011 9.22604 16.5215 11.5325 9.76158 16.0956C8.77109 16.7758 7.87394 17.1072 7.07012 17.0898C6.18398 17.0706 4.47939 16.5888 3.2122 16.1768C1.65795 15.6716 0.42266 15.4045 0.530226 14.5465C0.586253 14.0996 1.2017 13.6425 2.37656 13.1753Z" fill="white"/>
</svg>
