<svg width="28" height="28" viewBox="0 0 28 28" fill="none" xmlns="http://www.w3.org/2000/svg">
  <g clip-path="url(#clip0_23_96)">
    <path d="M0 28L1.97899 20.8137C0.755491 18.7044 0.113658 16.3156 0.120344 13.8736C0.120344 6.22148 6.37822 0 14.0602 0C17.7908 0 21.2942 1.44392 23.9217 4.06559C26.5559 6.68726 28.0067 10.174 28 13.8802C28 21.5323 21.7421 27.7538 14.0535 27.7538H14.0468C11.7135 27.7538 9.42024 27.1683 7.38108 26.0637L0 28ZM7.73543 23.5551L8.15663 23.808C9.93504 24.8593 11.9742 25.4116 14.0535 25.4183H14.0602C20.4451 25.4183 25.6466 20.2481 25.6466 13.8869C25.6466 10.8061 24.4432 7.9116 22.2569 5.72909C20.0707 3.54658 17.1557 2.34886 14.0602 2.34886C7.67526 2.34221 2.47373 7.51236 2.47373 13.8736C2.47373 16.0494 3.08214 18.1721 4.24546 20.0086L4.51958 20.4477L3.34957 24.6996L7.73543 23.5551Z" fill="white"/>
    <path d="M0.488007 27.5144L2.40014 20.5743C1.21675 18.5448 0.594979 16.2358 0.594979 13.8803C0.601665 6.4944 6.63891 0.48584 14.0601 0.48584C17.6637 0.48584 21.04 1.88318 23.5806 4.4117C26.1212 6.94021 27.5186 10.3071 27.5186 13.887C27.5186 21.2729 21.4746 27.2815 14.0601 27.2815H14.0534C11.8003 27.2815 9.58733 26.7159 7.62172 25.6512L0.488007 27.5144Z" fill="black"/>
    <path d="M0 28L1.97899 20.8137C0.755491 18.7044 0.113658 16.3156 0.120344 13.8736C0.120344 6.22148 6.37822 0 14.0602 0C17.7908 0 21.2942 1.44392 23.9217 4.06559C26.5559 6.68726 28.0067 10.174 28 13.8802C28 21.5323 21.7421 27.7538 14.0535 27.7538H14.0468C11.7135 27.7538 9.42024 27.1683 7.38108 26.0637L0 28ZM7.73543 23.5551L8.15663 23.808C9.93504 24.8593 11.9742 25.4116 14.0535 25.4183H14.0602C20.4451 25.4183 25.6466 20.2481 25.6466 13.8869C25.6466 10.8061 24.4432 7.9116 22.2569 5.72909C20.0707 3.54658 17.1557 2.34886 14.0602 2.34886C7.67526 2.34221 2.47373 7.51236 2.47373 13.8736C2.47373 16.0494 3.08214 18.1721 4.24546 20.0086L4.51958 20.4477L3.34957 24.6996L7.73543 23.5551Z" fill="white"/>
    <path fill-rule="evenodd" clip-rule="evenodd" d="M10.5768 8.07133C10.316 7.49244 10.0419 7.47913 9.79455 7.47247C9.59398 7.46582 9.35997 7.46582 9.12597 7.46582C8.89197 7.46582 8.51757 7.55232 8.19665 7.89833C7.87574 8.24434 6.97984 9.08274 6.97984 10.7928C6.97984 12.4962 8.23008 14.1464 8.40391 14.3793C8.57774 14.6122 10.8175 18.2253 14.3542 19.616C17.296 20.7738 17.8977 20.5409 18.5328 20.481C19.168 20.4211 20.5921 19.6426 20.8862 18.8308C21.1737 18.0191 21.1737 17.327 21.0868 17.1807C20.9999 17.0343 20.7659 16.9478 20.4182 16.7748C20.0706 16.6018 18.359 15.7634 18.0381 15.6436C17.7172 15.5305 17.4832 15.4706 17.2559 15.8166C17.0219 16.1626 16.3533 16.9411 16.1527 17.174C15.9521 17.4069 15.7449 17.4335 15.3972 17.2605C15.0496 17.0875 13.9264 16.7215 12.5959 15.5371C11.5596 14.6189 10.8576 13.481 10.657 13.135C10.4564 12.789 10.637 12.6027 10.8108 12.4297C10.9646 12.2767 11.1584 12.0238 11.3323 11.8242C11.5061 11.6246 11.5663 11.4782 11.6799 11.2453C11.7936 11.0124 11.7401 10.8128 11.6532 10.6398C11.5663 10.4734 10.8843 8.7567 10.5768 8.07133Z" fill="white"/>
  </g>
  <defs>
    <clipPath id="clip0_23_96">
      <rect width="28" height="28" fill="white"/>
    </clipPath>
  </defs>
</svg>
